<svg width="30" height="30" viewBox="0 0 30 30" fill="none" xmlns="http://www.w3.org/2000/svg">
  <path d="M14.5206 0.00684396C14.5797 0.00132192 14.6679 0.00173033 14.7302 0.000738701C18.5577 -0.0378572 22.2456 1.43734 24.9905 4.10511C27.8716 6.91258 29.5154 10.7525 29.558 14.7751C29.6187 18.7784 28.0818 22.6409 25.2878 25.5083C22.6189 28.2439 18.9341 29.9514 15.0938 29.9996C14.3817 30.0031 13.7693 29.9833 13.0573 29.8927C10.0286 29.4789 7.19752 28.1534 4.94027 26.0922C2.0071 23.4397 0.239464 19.7368 0.0215966 15.7882C-0.193063 11.7722 1.19937 7.83592 3.89151 4.84821C6.02658 2.51043 8.85341 0.916852 11.9589 0.300426C12.8623 0.120862 13.6141 0.0503786 14.5206 0.00684396Z" fill="#1A3D5C"/>
  <path d="M7.32885 8.20858C7.41588 8.19785 7.54559 8.1939 7.63606 8.19699C8.13471 8.21401 8.68929 8.15474 9.17943 8.23197C9.51561 8.28496 9.74668 8.58369 9.75306 8.91883C9.76031 9.30006 9.75846 9.69376 9.75837 10.0814L9.75745 12.5626L9.75969 21.0471C9.93307 20.8984 11.4215 19.4868 11.5515 19.4712C12.4346 19.3646 14.7628 19.4588 15.7676 19.4226C15.8378 19.4201 15.915 19.4393 15.9634 19.4625L15.971 19.4945C15.9133 19.5826 15.4943 19.9489 15.3865 20.0477L13.9678 21.3495C13.3646 21.8733 12.774 22.4589 12.178 22.9927C11.8695 23.269 11.5254 23.6291 11.1849 23.8532C10.9225 24.0234 10.6332 24.1482 10.3292 24.2221C9.54898 24.4146 8.72417 24.2878 8.0379 23.8696C7.39056 23.4632 6.92827 22.8194 6.75024 22.0761C6.60517 21.4537 6.65448 20.234 6.65432 19.5377L6.65411 15.7712L6.65533 11.1458L6.65423 9.75644C6.65075 9.0924 6.49325 8.37459 7.32885 8.20858Z" fill="white"/>
  <path d="M15.5866 6.13053C15.9636 6.0974 16.4974 6.12487 16.8856 6.12518L19.1843 6.12606L20.6504 6.12534C21.368 6.12524 22.104 6.01373 22.116 7.00972C22.1203 8.12976 22.1178 9.2498 22.1086 10.3698L22.1065 11.4555C22.1051 11.9727 22.1701 12.4348 21.7765 12.8326C21.5502 13.0592 21.2436 13.1874 20.9233 13.1893C20.6206 13.1907 20.3148 13.042 20.1034 12.8298C19.9716 12.6998 19.8769 12.5371 19.8287 12.3584C19.7526 12.0786 19.7804 10.7275 19.7801 10.3342C19.6354 10.4572 19.3696 10.7356 19.2253 10.8786L18.1056 11.9913L14.7272 15.3629L12.8593 17.2187C12.4532 17.6245 12.0066 18.0841 11.5899 18.472C11.5895 18.4578 11.5892 18.4436 11.5891 18.4294L11.5869 15.8798C11.5867 15.521 11.57 15.0338 11.6078 14.6742C11.6126 14.6277 11.7627 14.4572 11.8055 14.4137C12.4232 13.787 13.0498 13.1627 13.6713 12.5401L17.7871 8.39859L16.3228 8.39915C16.0725 8.39921 15.6531 8.41366 15.4209 8.36587C15.2432 8.32929 15.0768 8.25105 14.9352 8.13758C14.7013 7.95026 14.5541 7.67534 14.5281 7.37674C14.4985 7.07468 14.5899 6.77325 14.7824 6.53852C14.9973 6.27815 15.2586 6.16236 15.5866 6.13053Z" fill="#FF4D00"/>
  <path d="M17.762 14.5668C18.1328 14.5423 18.7319 14.5608 19.0896 14.6162C20.3554 14.8071 21.4886 15.5056 22.2277 16.5507C22.9998 17.6287 23.3074 18.9715 23.081 20.2781C22.8773 21.5667 22.1647 22.7195 21.1032 23.478C20.5868 23.8457 19.9986 24.1006 19.3772 24.2264C19.148 24.2701 18.9158 24.2968 18.6827 24.3059C18.2728 24.3213 17.7933 24.3115 17.379 24.3115L14.9565 24.3098C14.4822 24.3098 13.8455 24.3267 13.3599 24.2991C13.3122 24.2966 13.2977 24.2641 13.2814 24.2308L15.2539 22.2783C15.44 22.0953 15.8771 21.6302 16.0688 21.4867C16.2172 21.3769 16.3879 21.3009 16.5689 21.2645C17.1031 21.157 17.9545 21.2804 18.5273 21.2266C19.9422 21.0938 20.5724 19.4028 19.7377 18.3046C19.2526 17.6664 18.8061 17.5974 18.0564 17.5972L17.2139 17.5974L15.2423 17.6011C15.0885 17.6025 14.6716 17.6328 14.5617 17.5428C14.5822 17.4374 15.2946 16.7506 15.406 16.6379C15.8328 16.2062 16.2617 15.7769 16.693 15.3497C16.9069 15.1368 17.1344 14.8986 17.363 14.7047C17.4649 14.6184 17.6317 14.592 17.762 14.5668Z" fill="#FF4D00"/>
</svg>
