<svg xmlns="http://www.w3.org/2000/svg" viewBox="0 0 296 300" fill="none">
  <path d="M145.206 0.068C145.797 0.013 146.679 0.017 147.302 0.007C185.577 -0.379 222.456 14.373 249.905 41.051C278.716 69.126 295.154 107.525 295.58 147.751C296.187 187.784 280.818 226.409 252.878 255.083C226.189 282.439 189.341 299.514 150.938 299.996C143.817 300.031 137.693 299.833 130.573 298.927C100.286 294.789 71.975 281.534 49.403 260.922C20.071 234.397 2.395 197.368 0.216 157.882C-1.931 117.722 11.994 78.359 38.915 48.482C60.266 25.104 88.534 9.169 119.589 3.004C128.623 1.209 136.141 0.504 145.206 0.068Z" fill="#CE9A3E"/>
  <path d="M73.289 82.086C74.159 81.979 75.456 81.939 76.361 81.97C81.348 82.140 86.893 81.548 91.795 82.320C95.157 82.850 97.467 85.837 97.531 89.188C97.604 93.001 97.585 96.938 97.584 100.814L97.575 125.627L97.597 210.471C99.331 208.984 114.215 194.868 115.516 194.712C124.347 193.647 147.628 194.588 157.677 194.226C158.379 194.201 159.151 194.393 159.635 194.625L159.711 194.945C159.133 195.826 154.943 199.489 153.866 200.477L139.678 213.495C133.646 218.733 127.740 224.589 121.780 229.927C118.695 232.690 115.254 236.291 111.850 238.533C109.225 240.234 106.332 241.482 103.292 242.221C95.490 244.146 87.242 242.878 80.379 238.696C73.906 234.632 69.283 228.194 67.503 220.761C66.052 214.537 66.545 202.340 66.544 195.377L66.542 157.712L66.554 111.458L66.543 97.565C66.508 90.924 64.933 83.746 73.289 82.086Z" fill="white"/>
  <path d="M155.866 61.305C159.637 60.974 164.974 61.249 168.857 61.252L191.843 61.261L206.504 61.253C213.681 61.252 221.040 60.137 221.161 70.097C221.203 81.298 221.178 92.498 221.087 103.698L221.065 114.555C221.052 119.727 221.701 124.348 217.766 128.326C215.503 130.592 212.436 131.874 209.234 131.893C206.206 131.907 203.148 130.420 201.034 128.298C199.716 126.998 198.769 125.371 198.287 123.584C197.527 120.786 197.805 107.275 197.801 103.341C196.354 104.572 193.696 107.356 192.254 108.786L181.056 119.913L147.272 153.629L128.594 172.187C124.532 176.244 120.066 180.841 115.899 184.720C115.895 184.578 115.892 184.436 115.891 184.294L115.869 158.798C115.868 155.210 115.701 150.338 116.078 146.741C116.127 146.277 117.627 144.572 118.056 144.137C124.232 137.869 130.498 131.627 136.713 125.401L177.871 83.986L163.228 83.991C160.725 83.992 156.531 84.137 154.210 83.659C152.433 83.293 150.768 82.510 149.353 81.376C147.014 79.502 145.542 76.753 145.281 73.767C144.986 70.747 145.900 67.732 147.825 65.385C149.973 62.781 152.586 61.624 155.866 61.305Z" fill="#173229"/>
  <path d="M177.620 145.668C181.328 145.423 187.319 145.607 190.896 146.162C203.554 148.071 214.886 155.056 222.277 165.507C229.998 176.287 233.074 189.715 230.811 202.781C228.773 215.667 221.647 227.195 211.032 234.780C205.868 238.457 199.986 241.006 193.772 242.264C191.480 242.701 189.158 242.968 186.827 243.059C182.728 243.213 177.933 243.115 173.790 243.115L149.565 243.098C144.822 243.098 138.455 243.267 133.600 242.991C133.122 242.966 132.978 242.641 132.815 242.308L152.540 222.783C154.400 220.953 158.771 216.302 160.689 214.867C162.172 213.769 163.879 213.009 165.690 212.645C171.031 211.570 179.545 212.804 185.273 212.266C199.423 210.938 205.724 194.028 197.377 183.046C192.526 176.664 188.062 175.974 180.564 175.972L172.139 175.974L152.423 176.011C150.885 176.025 146.716 176.328 145.618 175.428C145.822 174.374 152.946 167.506 154.060 166.378C158.328 162.062 162.617 157.769 166.930 153.497C169.069 151.368 171.344 148.986 173.630 147.047C174.649 146.184 176.318 145.920 177.620 145.668Z" fill="#173229"/>
</svg>
